<svg width="45" height="37" viewBox="0 0 45 37" fill="none" xmlns="http://www.w3.org/2000/svg">
<path d="M8.5 12C8.5 10.6193 9.61929 9.5 11 9.5H41C42.3807 9.5 43.5 10.6193 43.5 12V33C43.5 34.3807 42.3807 35.5 41 35.5H11C9.61929 35.5 8.5 34.3807 8.5 33V12Z" stroke="#3D424C" stroke-width="3"/>
<path d="M1.5 25L1.5 4C1.5 2.61929 2.61929 1.5 4 1.5L34 1.5C35.3807 1.5 36.5 2.61929 36.5 4L36.5 9.5L11 9.5C9.61929 9.5 8.5 10.6193 8.5 12L8.5 27.5L4 27.5C2.61929 27.5 1.5 26.3807 1.5 25Z" stroke="#3D424C" stroke-width="3"/>
<circle cx="20" cy="20" r="2.5" stroke="#3D424C" stroke-width="3"/>
<path d="M24.4088 27.5H15.5912C15.7796 26.0061 16.2499 24.7918 16.9152 23.9508C17.6314 23.0453 18.6224 22.5 20 22.5C21.3776 22.5 22.3686 23.0453 23.0848 23.9508C23.7501 24.7918 24.2204 26.0061 24.4088 27.5Z" stroke="#3D424C" stroke-width="3"/>
<rect x="29" y="16" width="9" height="3" rx="1.5" fill="#3D424C"/>
<rect x="29" y="21" width="9" height="3" rx="1.5" fill="#3D424C"/>
<rect x="29" y="26" width="6" height="3" rx="1.5" fill="#3D424C"/>
</svg>
