<svg width="7" height="11" viewBox="0 0 7 11" fill="none" xmlns="http://www.w3.org/2000/svg">
<path d="M5.50006 11.0002C5.76586 11.0017 6.02134 10.8974 6.21006 10.7102C6.39937 10.5224 6.50586 10.2668 6.50586 10.0002C6.50586 9.73354 6.39937 9.47794 6.21006 9.29017L2.90006 6.00017L6.08006 2.69017C6.46778 2.30014 6.46778 1.67021 6.08006 1.28017C5.89229 1.09086 5.6367 0.984375 5.37006 0.984375C5.10342 0.984375 4.84783 1.09086 4.66006 1.28017L0.800061 5.28017C0.418918 5.66902 0.418918 6.29133 0.800061 6.68017L4.80006 10.6802C4.98136 10.876 5.23338 10.9912 5.50006 11.0002Z" fill="currentColor"/>
</svg>
