<svg width="10" height="6" viewBox="0 0 10 6" fill="none" xmlns="http://www.w3.org/2000/svg">
  <path d="M4.98036 5.99998C4.71582 6.00152 4.46156 5.89724 4.27373 5.71018L0.292719 1.71294C0.0402639 1.45945 -0.0583308 1.08999 0.034074 0.743724C0.126479 0.397459 0.395845 0.126994 0.740704 0.0342129C1.08556 -0.0585687 1.45352 0.0404281 1.70598 0.293912L4.98036 3.60163L8.2647 0.423823C8.51427 0.145182 8.89813 0.0301616 9.25897 0.125897C9.61981 0.221632 9.89698 0.512028 9.97689 0.878085C10.0568 1.24414 9.92602 1.62432 9.63815 1.86283L5.65714 5.72018C5.47513 5.89637 5.23316 5.99641 4.98036 5.99998Z" fill="currentColor"/>
</svg>
