<svg width="12" height="22" viewBox="0 0 12 22" fill="none" xmlns="http://www.w3.org/2000/svg">
  <path d="M6 21C2.77086 21.0784 0.0872431 18.5289 0 15.3V5.13002C0.0600303 2.79598 1.99573 0.949685 4.33 1.00002C6.66813 0.944086 8.60999 2.79199 8.67 5.13002V15.31C8.58368 16.7185 7.41618 17.8167 6.005 17.8167C4.59382 17.8167 3.42632 16.7185 3.34 15.31V5.92002C3.34 5.36773 3.78772 4.92002 4.34 4.92002C4.89228 4.92002 5.34 5.36773 5.34 5.92002V15.31C5.38127 15.6459 5.66656 15.8983 6.005 15.8983C6.34344 15.8983 6.62873 15.6459 6.67 15.31V5.13002C6.6053 3.89883 5.56183 2.949 4.33 3.00002C3.10199 2.95462 2.0647 3.90287 2 5.13002V15.3C2.08667 17.4245 3.87517 19.0789 6 19C8.12483 19.0789 9.91333 17.4245 10 15.3V5.13002C10 4.57773 10.4477 4.13002 11 4.13002C11.5523 4.13002 12 4.57773 12 5.13002V15.3C11.9128 18.5289 9.22914 21.0784 6 21Z" fill="currentColor"/>
</svg>
