<svg width="20" height="20" viewBox="0 0 20 20" fill="none" xmlns="http://www.w3.org/2000/svg">
<path d="M15 9.99989V9.90989C14.9954 9.8139 14.9752 9.71932 14.94 9.62989C14.9133 9.5613 14.8762 9.49723 14.83 9.43989C14.8035 9.39425 14.7734 9.35078 14.74 9.30989L11.88 6.30989C11.4989 5.90948 10.8654 5.89381 10.465 6.27489C10.0646 6.65596 10.0489 7.28948 10.43 7.68989L11.66 8.99989H6C5.44772 8.99989 5 9.4476 5 9.99989C5 10.5522 5.44772 10.9999 6 10.9999H11.59L10.29 12.2899C10.1007 12.4777 9.9942 12.7333 9.9942 12.9999C9.9942 13.2665 10.1007 13.5221 10.29 13.7099C10.4778 13.8992 10.7334 14.0057 11 14.0057C11.2666 14.0057 11.5222 13.8992 11.71 13.7099L14.71 10.7099C14.8 10.6177 14.8713 10.5091 14.92 10.3899C14.9725 10.2666 14.9997 10.1339 15 9.99989Z" fill="currentColor"/>
<path fill-rule="evenodd" clip-rule="evenodd" d="M0 10C0 4.47715 4.47715 0 10 0C12.6522 0 15.1957 1.05357 17.0711 2.92893C18.9464 4.80429 20 7.34784 20 10C20 15.5229 15.5228 20 10 20C4.47715 20 0 15.5229 0 10ZM2 10C2 14.4183 5.58172 18 10 18C12.1217 18 14.1566 17.1571 15.6569 15.6569C17.1571 14.1566 18 12.1217 18 10C18 5.58172 14.4183 2 10 2C5.58172 2 2 5.58172 2 10Z" fill="currentColor"/>
</svg>
