<svg width="20" height="20" viewBox="0 0 20 20" fill="none" xmlns="http://www.w3.org/2000/svg" preserveAspectRatio="none">
<path fill-rule="evenodd" clip-rule="evenodd" d="M0 10C0 4.47716 4.47715 0 10 0C12.6522 0 15.1957 1.05357 17.0711 2.92892C18.9464 4.80429 20 7.34783 20 10C20 15.5229 15.5228 20 10 20C4.47715 20 0 15.5229 0 10ZM2 10C2 14.4183 5.58172 18 10 18C12.1217 18 14.1566 17.1571 15.6569 15.6569C17.1571 14.1566 18 12.1217 18 10C18 5.58172 14.4183 2 10 2C5.58172 2 2 5.58172 2 10Z" fill="currentColor"/>
<path d="M14 9H11V6C11 5.44772 10.5523 5 10 5C9.44772 5 9 5.44772 9 6V10C9 10.5523 9.44772 11 10 11H14C14.5523 11 15 10.5523 15 10C15 9.44772 14.5523 9 14 9Z" fill="currentColor"/>
</svg>
