<svg width="38" height="34" viewBox="0 0 38 34" fill="none" xmlns="http://www.w3.org/2000/svg">
<path fill-rule="evenodd" clip-rule="evenodd" d="M9.11173 2.91768L19 9.8579L28.8883 2.91768C28.7053 2.59869 28.3615 2.38132 27.9722 2.38132H10.0278C9.63851 2.38132 9.29469 2.59869 9.11173 2.91768ZM31.4027 3.41878C31.3914 1.53378 29.8548 0 27.9722 0H10.0278C8.1452 0 6.60855 1.53381 6.59728 3.41882C6.59709 3.43064 6.59707 3.44246 6.59722 3.45427V5.42412H3.95833C1.77221 5.42412 0 7.20105 0 9.39299V24.4747C0 26.6667 1.7722 28.4436 3.95833 28.4436H14.0125L13.6958 31.6187H9.10417C8.44833 31.6187 7.91667 32.1518 7.91667 32.8093C7.91667 33.4669 8.44833 34 9.10417 34H13.4583H15.8452H22.1548H24.5417H28.8958C29.5517 34 30.0833 33.4669 30.0833 32.8093C30.0833 32.1518 29.5517 31.6187 28.8958 31.6187H24.3042L23.9875 28.4436H34.0417C36.2278 28.4436 38 26.6667 38 24.4747V9.39299C38 7.20105 36.2278 5.42412 34.0417 5.42412H31.4028V3.4543C31.4029 3.44247 31.4029 3.43062 31.4027 3.41878ZM29.0278 5.72654V16.9339C29.0278 17.5132 28.5501 17.9922 27.9722 17.9922H10.0278C9.44993 17.9922 8.97222 17.5132 8.97222 16.9339V5.72654L18.319 12.2867C18.7279 12.5737 19.2721 12.5737 19.681 12.2867L29.0278 5.72654ZM31.4028 16.9339V7.80545H34.0417C34.9161 7.80545 35.625 8.51622 35.625 9.39299V24.4747C35.625 25.3515 34.9161 26.0623 34.0417 26.0623H23.75H14.25H3.95833C3.08388 26.0623 2.375 25.3515 2.375 24.4747V9.39299C2.375 8.51622 3.08388 7.80545 3.95833 7.80545H6.59722V16.9339C6.59722 18.8284 8.13826 20.3735 10.0278 20.3735H27.9722C29.8617 20.3735 31.4028 18.8284 31.4028 16.9339ZM16.0827 31.6187H21.9173L21.6007 28.4436H16.3993L16.0827 31.6187Z" fill="currentColor"/>
</svg>
