<svg width="42" height="42" viewBox="0 0 42 42" fill="none" xmlns="http://www.w3.org/2000/svg">
  <path d="M21.0001 0.166992C16.8796 0.166992 12.8517 1.38885 9.42571 3.67804C5.99969 5.96724 3.32943 9.22096 1.7526 13.0278C0.175775 16.8345 -0.236795 21.0234 0.567064 25.0647C1.37092 29.106 3.35511 32.8181 6.2687 35.7317C9.18229 38.6453 12.8944 40.6295 16.9357 41.4334C20.977 42.2372 25.1659 41.8246 28.9727 40.2478C32.7795 38.671 36.0332 36.0007 38.3224 32.5747C40.6116 29.1487 41.8334 25.1208 41.8334 21.0003C41.8334 18.2645 41.2946 15.5554 40.2476 13.0278C39.2006 10.5001 37.666 8.20349 35.7315 6.26893C33.7969 4.33438 31.5003 2.79981 28.9727 1.75284C26.445 0.705862 23.736 0.166992 21.0001 0.166992ZM26.6459 23.6878C26.8412 23.8815 26.9962 24.1119 27.1019 24.3658C27.2077 24.6197 27.2622 24.892 27.2622 25.167C27.2622 25.442 27.2077 25.7143 27.1019 25.9682C26.9962 26.2221 26.8412 26.4525 26.6459 26.6462C26.4523 26.8414 26.2218 26.9964 25.968 27.1022C25.7141 27.2079 25.4418 27.2624 25.1668 27.2624C24.8917 27.2624 24.6194 27.2079 24.3656 27.1022C24.1117 26.9964 23.8813 26.8414 23.6876 26.6462L21.0001 23.9378L18.3126 26.6462C18.1189 26.8414 17.8885 26.9964 17.6346 27.1022C17.3808 27.2079 17.1084 27.2624 16.8334 27.2624C16.5584 27.2624 16.2861 27.2079 16.0322 27.1022C15.7783 26.9964 15.5479 26.8414 15.3543 26.6462C15.159 26.4525 15.004 26.2221 14.8982 25.9682C14.7925 25.7143 14.738 25.442 14.738 25.167C14.738 24.892 14.7925 24.6197 14.8982 24.3658C15.004 24.1119 15.159 23.8815 15.3543 23.6878L18.0626 21.0003L15.3543 18.3128C14.962 17.9205 14.7416 17.3885 14.7416 16.8337C14.7416 16.2789 14.962 15.7468 15.3543 15.3545C15.7466 14.9622 16.2786 14.7418 16.8334 14.7418C17.3882 14.7418 17.9203 14.9622 18.3126 15.3545L21.0001 18.0628L23.6876 15.3545C24.0799 14.9622 24.612 14.7418 25.1668 14.7418C25.7216 14.7418 26.2536 14.9622 26.6459 15.3545C27.0382 15.7468 27.2586 16.2789 27.2586 16.8337C27.2586 17.3885 27.0382 17.9205 26.6459 18.3128L23.9376 21.0003L26.6459 23.6878Z" fill="#FF1818"/>
</svg>
