<svg width="16" height="20" viewBox="0 0 16 20" fill="none" xmlns="http://www.w3.org/2000/svg">
  <path fill-rule="evenodd" clip-rule="evenodd" d="M11.3 0.330174L15.74 5.33008C15.9067 5.51348 15.9994 5.75224 16 6.00007V17.4999C15.9921 18.1709 15.7179 18.8112 15.2378 19.2801C14.7577 19.7489 14.111 20.0078 13.44 19.9998H2.56C1.88899 20.0078 1.24229 19.7489 0.762182 19.2801C0.282078 18.8112 0.00790949 18.1709 0 17.4999V2.50014C0.00790949 1.82913 0.282078 1.18876 0.762182 0.719921C1.24229 0.251079 1.88899 -0.0078235 2.56 0.000180197H10.56C10.8422 0.000847149 11.1109 0.120699 11.3 0.330174ZM13.74 6.00007L10 2.00014V5.15009C9.98352 5.36137 10.0526 5.57041 10.1918 5.73024C10.3309 5.89008 10.5285 5.9873 10.74 6.00007H13.74Z" fill="currentColor"/>
</svg>
