<svg width="100" height="100" viewBox="0 0 100 100" fill="none" xmlns="http://www.w3.org/2000/svg">
<path fill-rule="evenodd" clip-rule="evenodd" d="M56.6926 29.0776C57.9668 18.1831 67.2013 9.9719 78.1705 9.97921C89.1396 9.9719 98.3742 18.1831 99.6484 29.0776C100.923 39.9721 93.8345 50.0934 83.1601 52.6182V58.2121H84.8233C85.7418 58.2121 86.4865 58.9568 86.4865 59.8753V64.8649H89.8129V61.5385H93.1393V71.5177H89.8129V68.1913H86.4865V73.1809C86.4865 74.0994 85.7418 74.8441 84.8233 74.8441H83.1601V79.8337C83.1544 84.4237 79.4349 88.144 74.8441 88.1497H63.2017V91.4761H59.8753V88.1497H53.2225V98.1289C53.2225 99.0474 52.4777 99.7921 51.5592 99.7921H28.2744C27.3559 99.7921 26.6112 99.0474 26.6112 98.1289V56.5489H21.6216C20.7031 56.5489 19.9584 55.8041 19.9584 54.8857V53.2225H9.97921V56.5489C9.97921 59.3043 7.74509 61.5385 4.9896 61.5385C2.23412 61.5385 0 59.3043 0 56.5489V39.9168C0 37.1614 2.23412 34.9272 4.9896 34.9272C7.74509 34.9272 9.97921 37.1614 9.97921 39.9168V43.2432H19.9584V41.58C19.9584 40.6615 20.7031 39.9168 21.6216 39.9168H26.6112V1.6632C26.6112 0.744705 27.3559 0 28.2744 0H51.5592C52.4777 0 53.2225 0.744705 53.2225 1.6632V78.1705H59.8753V74.8441H63.2017V78.1705H73.1809V74.8441H71.5177C70.5992 74.8441 69.8545 74.0994 69.8545 73.1809V59.8753C69.8545 58.9568 70.5992 58.2121 71.5177 58.2121H73.1809V52.6182C62.5065 50.0934 55.4176 39.9721 56.6926 29.0776ZM92.5635 27.5338L95.5894 26.0224C94.6206 23.0314 92.8997 20.3393 90.5909 18.2051L88.2398 20.5569C90.3026 22.4345 91.8009 24.8506 92.5635 27.5338ZM96.4657 31.6008C96.4624 33.6262 96.1197 35.637 95.453 37.5504L92.4587 36.0528C92.9095 34.6121 93.1393 33.1105 93.1393 31.6008C93.1393 31.474 93.1307 31.3496 93.1221 31.2253C93.1164 31.1443 93.1108 31.0634 93.1076 30.982L96.3163 29.3773C96.4113 30.1147 96.4616 30.8569 96.4657 31.6008ZM68.404 16.1561L70.8225 18.5746C72.5726 17.5806 74.507 16.9528 76.5073 16.7303V13.3901C73.6243 13.6524 70.8461 14.6009 68.404 16.1561ZM79.8337 16.7303V13.3901C82.7167 13.6524 85.4949 14.6009 87.9369 16.1561L85.5184 18.5746C83.7684 17.5806 81.8339 16.9528 79.8337 16.7303ZM68.1011 20.5569L65.7501 18.2051C63.8668 19.9454 62.3684 22.0593 61.3509 24.412L64.4426 25.6481C65.2912 23.7128 66.5378 21.9781 68.1011 20.5569ZM59.8753 31.6008C59.8785 30.2503 60.032 28.9038 60.3325 27.5874L63.468 28.8413C63.0035 31.2419 63.1489 33.7204 63.8903 36.0496L60.8961 37.5463C60.2269 35.6354 59.8818 33.6254 59.8753 31.6008ZM29.9376 29.9376H49.896V26.6112H29.9376V29.9376ZM29.9376 33.264H49.896V63.2017H29.9376V33.264ZM49.896 66.5281H29.9376V69.8545H49.896V66.5281ZM29.9376 3.3264H33.264V18.2952H36.5904V3.3264H49.896V23.2848H29.9376V3.3264ZM4.9896 58.2121C5.9081 58.2121 6.65281 57.4674 6.65281 56.5489V39.9168C6.65281 38.9983 5.9081 38.2536 4.9896 38.2536C4.07111 38.2536 3.3264 38.9983 3.3264 39.9168V56.5489C3.3264 57.4674 4.07111 58.2121 4.9896 58.2121ZM9.97921 49.896V46.5696H19.9584V49.896H9.97921ZM23.2848 43.2432V53.2225H26.6112V43.2432H23.2848ZM49.896 96.4657H29.9376V73.1809H49.896V96.4657ZM59.8753 81.4969H53.2225V84.8233H59.8753V81.4969ZM79.8337 79.8337C79.8337 82.5892 77.5996 84.8233 74.8441 84.8233H63.2017V81.4969H73.1809C75.0179 81.4969 76.5073 80.0075 76.5073 78.1705V74.8441H79.8337V79.8337ZM73.1809 71.5177H83.1601V61.5385H73.1809V71.5177ZM79.8337 58.2121H76.5073V53.1372C77.0579 53.181 77.6085 53.2225 78.1705 53.2225C78.7325 53.2225 79.2831 53.181 79.8337 53.1372V58.2121ZM62.2539 40.582C65.4918 46.3293 71.5737 49.8879 78.1705 49.896C84.7673 49.8879 90.8491 46.3293 94.087 40.582L91.1188 39.0982C90.3115 40.4967 89.2818 41.7538 88.0717 42.8226L85.8693 40.3278C89.5019 37.1256 90.7728 32.0093 89.0617 27.4794C87.3498 22.9494 83.0131 19.9519 78.1705 19.9519C73.3279 19.9519 68.9912 22.9494 67.2793 27.4794C65.5682 32.0093 66.8391 37.1256 70.4717 40.3278L68.2692 42.8226C67.0592 41.7538 66.0294 40.4967 65.2222 39.0982L62.2539 40.582Z" fill="#DADDE6"/>
<path fill-rule="evenodd" clip-rule="evenodd" d="M83.6476 23.7734L85.9994 26.1253L82.6617 29.4647C82.9865 30.1306 83.1571 30.8607 83.1603 31.6022C83.1603 34.3577 80.9262 36.5918 78.1707 36.5918C77.4301 36.5885 76.6992 36.418 76.0332 36.0923L72.6922 39.4309L70.3403 37.0791L73.6797 33.7397C73.3549 33.0737 73.1843 32.3428 73.1811 31.6022C73.1811 28.8467 75.4152 26.6126 78.1707 26.6126C78.9113 26.615 79.6422 26.7856 80.3082 27.1112L83.6476 23.7734ZM76.5075 31.6022C76.5075 32.5207 77.2522 33.2654 78.1707 33.2654C79.0892 33.2654 79.8339 32.5207 79.8339 31.6022C79.8339 30.6837 79.0892 29.939 78.1707 29.939C77.2522 29.939 76.5075 30.6837 76.5075 31.6022Z" fill="#737780"/>
<path d="M76.5073 41.582H79.8337V44.9084H76.5073V41.582Z" fill="#737780"/>
<path d="M33.2642 36.5938H36.5906V39.9202H33.2642V36.5938Z" fill="#737780"/>
<path d="M36.5906 83.1602H33.2642V93.1394H39.917V89.813H36.5906V83.1602Z" fill="#737780"/>
</svg>
