<svg width="510" height="312" viewBox="0 0 510 312" fill="none" xmlns="http://www.w3.org/2000/svg">
<path d="M61.8763 310L61 309.803C70.7714 266.538 95.3276 227.249 130.145 199.173C183.659 156.089 255.698 143.514 320.741 165.904C385.783 188.293 434.639 242.483 450 309.276L449.125 309.474C428.44 219.048 348.844 155.894 255.56 155.894C163.499 155.894 82.0432 220.705 61.8763 310Z" fill="#3F3D56"/>
<path d="M187 56C200.255 56 211 45.031 211 31.5C211 17.969 200.255 7 187 7C173.745 7 163 17.969 163 31.5C163 45.031 173.745 56 187 56Z" fill="#FF7439"/>
<path d="M81.2071 306.528C81.8928 309.29 84.2416 311 84.2416 311C84.2416 311 85.4787 308.233 84.7929 305.472C84.1072 302.71 81.7584 301 81.7584 301C81.7584 301 80.5213 303.767 81.2071 306.528Z" fill="#3F3D56"/>
<path d="M82.8309 305.096C84.7639 307.029 85 310 85 310C85 310 82.1021 309.837 80.1691 307.904C78.2361 305.971 78 303 78 303C78 303 80.8979 303.163 82.8309 305.096Z" fill="#4285F4"/>
<path d="M139.207 306.528C139.893 309.29 142.242 311 142.242 311C142.242 311 143.479 308.233 142.793 305.472C142.107 302.71 139.758 301 139.758 301C139.758 301 138.521 303.767 139.207 306.528Z" fill="#3F3D56"/>
<path d="M140.831 305.096C142.764 307.029 143 310 143 310C143 310 140.102 309.837 138.169 307.904C136.236 305.971 136 303 136 303C136 303 138.898 303.163 140.831 305.096Z" fill="#4285F4"/>
<path d="M152.141 82.0757L143 74.7546L194.192 29H324V69.2641L239.899 126L152.141 82.0757Z" fill="#3F3D56"/>
<path d="M347.772 54.7705V29.9178H330.523V36.0042L324.086 29L282.001 74.9413L265.534 85.9675L240 273.326L278.508 312H368V76.7791L347.772 54.7705Z" fill="#CCCCCC"/>
<rect x="143" y="75" width="139" height="237" fill="#F2F2F2"/>
<rect x="197" y="254" width="26" height="58" fill="#CCCCCC"/>
<path d="M169 271V261H158V271H168.083H169Z" fill="#3F3D56"/>
<path d="M168.083 278H158V288H169V278H168.083Z" fill="#3F3D56"/>
<rect x="176" y="261" width="11" height="10" fill="#3F3D56"/>
<rect x="176" y="278" width="11" height="10" fill="#3F3D56"/>
<path d="M244 271V261H233V271H243.083H244Z" fill="#3F3D56"/>
<path d="M243.083 278H233V288H244V278H243.083Z" fill="#3F3D56"/>
<rect x="251" y="261" width="11" height="10" fill="#3F3D56"/>
<rect x="251" y="278" width="11" height="10" fill="#3F3D56"/>
<path d="M321 88V78H310V88H320.084H321Z" fill="#3F3D56"/>
<path d="M320.084 94H310V104H321V94H320.084Z" fill="#3F3D56"/>
<rect x="328" y="78" width="11" height="10" fill="#3F3D56"/>
<rect x="328" y="94" width="11" height="10" fill="#3F3D56"/>
<path d="M321 138V128H310V138H320.084H321Z" fill="#3F3D56"/>
<path d="M320.084 145H310V155H321V145H320.084Z" fill="#3F3D56"/>
<rect x="328" y="128" width="11" height="10" fill="#3F3D56"/>
<rect x="328" y="145" width="11" height="10" fill="#3F3D56"/>
<path d="M321 190V180H310V190H320.084H321Z" fill="#3F3D56"/>
<path d="M320.084 197H310V207H321V197H320.084Z" fill="#3F3D56"/>
<rect x="328" y="180" width="11" height="10" fill="#3F3D56"/>
<rect x="328" y="197" width="11" height="10" fill="#3F3D56"/>
<path d="M321 241V231H310V241H320.084H321Z" fill="#3F3D56"/>
<path d="M320.084 248H310V258H321V248H320.084Z" fill="#3F3D56"/>
<rect x="328" y="231" width="11" height="10" fill="#3F3D56"/>
<rect x="328" y="248" width="11" height="10" fill="#3F3D56"/>
<rect x="158" y="86" width="107" height="22" fill="#3F3D56"/>
<rect x="158" y="131" width="107" height="22" fill="#3F3D56"/>
<rect x="158" y="174" width="107" height="22" fill="#3F3D56"/>
<rect x="158" y="218" width="107" height="22" fill="#3F3D56"/>
<rect y="310" width="510" height="1" fill="#3F3D56"/>
<rect x="86" y="206" width="3" height="105" fill="#3F3D56"/>
<path d="M112.999 219.881C113.169 256.332 87.3068 286 87.3068 286C87.3068 286 61.1702 256.57 61.0008 220.119C60.8314 183.668 86.6932 154 86.6932 154C86.6932 154 112.83 183.43 112.999 219.881Z" fill="#4285F4"/>
<path opacity="0.1" d="M112.999 219.881C113.169 256.332 87.3068 286 87.3068 286C87.3068 286 61.1702 256.57 61.0008 220.119C60.8314 183.668 86.6932 154 86.6932 154C86.6932 154 112.83 183.43 112.999 219.881Z" fill="black"/>
<rect x="51" y="206" width="3" height="105" fill="#3F3D56"/>
<path d="M78.9992 219.881C79.1686 256.332 53.3068 286 53.3068 286C53.3068 286 27.1702 256.57 27.0008 220.119C26.8314 183.668 52.6932 154 52.6932 154C52.6932 154 78.8298 183.43 78.9992 219.881Z" fill="#4285F4"/>
<path d="M424.568 74.5963C403.858 74.6923 387 75 387 75C387 75 407.038 48.3086 424.493 58.1976C441.948 68.0865 462 74.6524 462 74.6524C462 74.6524 445.279 74.5003 424.568 74.5963Z" fill="#E1E4EB"/>
<path d="M78.5683 125.596C57.8577 125.692 41 126 41 126C41 126 61.038 99.3086 78.4932 109.198C95.9484 119.087 116 125.652 116 125.652C116 125.652 99.279 125.5 78.5683 125.596Z" fill="#E1E4EB"/>
<path d="M153.568 18.5963C132.858 18.6923 116 19 116 19C116 19 136.038 -7.69137 153.493 2.19759C170.948 12.0865 191 18.6524 191 18.6524C191 18.6524 174.279 18.5003 153.568 18.5963Z" fill="#E1E4EB"/>
<rect x="464" y="206" width="3" height="105" fill="#3F3D56"/>
<path d="M491.999 219.881C492.169 256.332 466.307 286 466.307 286C466.307 286 440.17 256.57 440.001 220.119C439.831 183.668 465.693 154 465.693 154C465.693 154 491.83 183.43 491.999 219.881Z" fill="#4285F4"/>
<path d="M369.833 247.364H396.578V241H411.333V247.364H439V275.546H411.333V311H396.578V275.546H369.833L356 260.091L369.833 247.364Z" fill="#3F3D56"/>
</svg>
