<svg width="510" height="472" viewBox="0 0 510 472" fill="none" xmlns="http://www.w3.org/2000/svg">
<path d="M360.041 83.8599H96.906V436.278H360.041V83.8599Z" fill="#F0F2F7"/>
<path d="M207.961 98.7181H117.421V101.548H207.961V98.7181Z" fill="#E0E0E0"/>
<path d="M207.961 111.456H117.421V114.285H207.961V111.456Z" fill="#797789"/>
<path d="M311.942 98.7181H221.402V101.548H311.942V98.7181Z" fill="#E0E0E0"/>
<path d="M326.085 179.397H235.545V182.227H326.085V179.397Z" fill="#E0E0E0"/>
<path d="M328.211 187.177H237.671V190.007H328.211V187.177Z" fill="#E0E0E0"/>
<path d="M332.457 194.964H241.917V197.794H332.457V194.964Z" fill="#E0E0E0"/>
<path d="M326.085 304.65H235.545V307.48H326.085V304.65Z" fill="#E0E0E0"/>
<path d="M328.211 312.437H237.671V315.267H328.211V312.437Z" fill="#E0E0E0"/>
<path d="M332.457 320.217H241.917V323.047H332.457V320.217Z" fill="#E0E0E0"/>
<g opacity="0.5">
<path opacity="0.5" d="M210.384 158.164H122.073V219.021H210.384V158.164Z" fill="url(#paint0_linear)"/>
</g>
<path d="M209.772 158.873H122.679V217.609H209.772V158.873Z" fill="white"/>
<path opacity="0.4" d="M132 203.5L147.761 176.567L156.956 191.426L176.762 170.908L193.74 191.426L208.592 161L247 217.609H123L132 203.5Z" fill="#3B78DC"/>
<path opacity="0.4" d="M132.273 173.731C135.789 173.731 138.639 170.879 138.639 167.362C138.639 163.845 135.789 160.993 132.273 160.993C128.757 160.993 125.907 163.845 125.907 167.362C125.907 170.879 128.757 173.731 132.273 173.731Z" fill="#3B78DC"/>
<g opacity="0.5">
<path opacity="0.5" d="M210.384 283.423H122.073V344.28H210.384V283.423Z" fill="url(#paint1_linear)"/>
</g>
<path d="M209.772 284.126H122.679V342.862H209.772V284.126Z" fill="white"/>
<path opacity="0.4" d="M132 328.5L147.761 301.567L156.956 316.426L176.762 295.908L193.74 316.426L208.592 286L247 342.609H123L132 328.5Z" fill="#3B78DC"/>
<path opacity="0.4" d="M132.273 300.737C135.789 300.737 138.639 297.886 138.639 294.369C138.639 290.851 135.789 288 132.273 288C128.757 288 125.907 290.851 125.907 294.369C125.907 297.886 128.757 300.737 132.273 300.737Z" fill="#3B78DC"/>
<path d="M206.892 66.411L138.229 412.07L396.317 463.382L464.98 117.724L206.892 66.411Z" fill="white"/>
<path d="M405.647 122.51L222.485 86.0941L221.934 88.8697L405.096 125.286L405.647 122.51Z" fill="#E0E0E0"/>
<path d="M353.531 384.882L170.369 348.466L169.818 351.242L352.979 387.658L353.531 384.882Z" fill="#E0E0E0"/>
<path d="M308.726 392.564L167.192 364.424L166.64 367.2L308.175 395.34L308.726 392.564Z" fill="#E0E0E0"/>
<path d="M216.747 390.876L164.022 380.394L163.471 383.169L216.195 393.652L216.747 390.876Z" fill="#4285F4"/>
<path d="M310.887 120.269L219.309 102.061L218.757 104.837L310.335 123.044L310.887 120.269Z" fill="#4285F4"/>
<path d="M381.264 150.852L216.145 118.024L215.594 120.799L380.713 153.628L381.264 150.852Z" fill="#E0E0E0"/>
<path opacity="0.7" d="M253.208 141.991L212.971 133.991L212.419 136.766L252.657 144.766L253.208 141.991Z" fill="#3F3D56"/>
<path d="M392.964 186.371L209.803 149.955L209.251 152.731L392.413 189.147L392.964 186.371Z" fill="#E0E0E0"/>
<g opacity="0.5">
<path opacity="0.5" d="M225.94 217.387L207.19 311.781L371.614 344.472L390.365 250.078L225.94 217.387Z" fill="url(#paint2_linear)"/>
</g>
<path d="M389.217 250.565L226.872 218.288L208.534 310.601L370.88 342.879L389.217 250.565Z" fill="white"/>
<path d="M389.793 202.34L206.631 165.925L206.08 168.7L389.242 205.116L389.793 202.34Z" fill="#E0E0E0"/>
<path d="M261.514 238.162L241.392 234.161L228.018 301.489L248.139 305.489L261.514 238.162Z" fill="#FF7439"/>
<path d="M293.177 267.547L273.055 263.546L264.093 308.663L284.215 312.664L293.177 267.547Z" fill="#3AD29F"/>
<path d="M325.123 295.544L305.001 291.543L300.176 315.834L320.297 319.835L325.123 295.544Z" fill="#FFB039"/>
<path d="M366.163 277.728L346.042 273.728L336.252 323.011L356.374 327.012L366.163 277.728Z" fill="#4285F4"/>
<path d="M432.276 208.507C423.549 199.426 413.094 192.183 401.527 187.204C389.96 182.225 377.514 179.612 364.922 179.517C352.33 179.422 339.846 181.848 328.205 186.652C316.565 191.456 306.002 198.54 297.139 207.489C261.402 243.532 260.797 302.22 295.752 339.027C311.109 355.196 331.689 365.407 353.85 367.853C376.01 370.298 398.321 364.82 416.831 352.388L485.081 423.42C485.927 424.298 487.086 424.806 488.305 424.829C489.523 424.853 490.702 424.392 491.581 423.547L508.589 407.186C509.467 406.34 509.974 405.18 509.998 403.961C510.022 402.742 509.561 401.563 508.716 400.684L440.459 329.658C453.545 311.722 459.897 289.748 458.401 267.593C456.904 245.438 447.655 224.519 432.276 208.507ZM411.016 322.653C401.387 331.914 389.229 338.111 376.08 340.459C362.931 342.808 349.381 341.203 337.144 335.847C324.906 330.491 314.531 321.626 307.33 310.371C300.129 299.116 296.426 285.978 296.689 272.617C296.951 259.257 301.168 246.275 308.806 235.312C316.443 224.349 327.159 215.898 339.597 211.028C352.035 206.157 365.638 205.086 378.685 207.95C391.731 210.814 403.636 217.484 412.894 227.116C419.041 233.513 423.869 241.058 427.102 249.321C430.334 257.583 431.908 266.402 431.734 275.274C431.559 284.145 429.64 292.896 426.085 301.025C422.531 309.154 417.41 316.504 411.016 322.653Z" fill="#3F3D56"/>
<path d="M314.189 255.191C306.594 255.191 306.581 267.001 314.189 267.001C321.797 267.001 321.797 255.191 314.189 255.191Z" fill="#3F3D56"/>
<path d="M367.133 217.366C346.691 216.906 328.09 227.165 318.199 242.653C314.97 247.707 324.135 252.173 327.345 247.144C335.534 234.321 351.094 226.177 367.927 226.601C385.565 227.044 401.616 237.139 410.114 251.149C413.336 256.463 421.786 251.634 418.594 246.35C408.242 229.334 388.254 217.821 367.133 217.366Z" fill="#3F3D56"/>
<defs>
<linearGradient id="paint0_linear" x1="24358.2" y1="22154.4" x2="24358.2" y2="16042.5" gradientUnits="userSpaceOnUse">
<stop stop-color="#808080" stop-opacity="0.25"/>
<stop offset="0.54" stop-color="#808080" stop-opacity="0.12"/>
<stop offset="1" stop-color="#808080" stop-opacity="0.1"/>
</linearGradient>
<linearGradient id="paint1_linear" x1="24358.2" y1="34859.5" x2="24358.2" y2="28747.6" gradientUnits="userSpaceOnUse">
<stop stop-color="#808080" stop-opacity="0.25"/>
<stop offset="0.54" stop-color="#808080" stop-opacity="0.12"/>
<stop offset="1" stop-color="#808080" stop-opacity="0.1"/>
</linearGradient>
<linearGradient id="paint2_linear" x1="46609.6" y1="106633" x2="51803.6" y2="80508.1" gradientUnits="userSpaceOnUse">
<stop stop-color="#808080" stop-opacity="0.25"/>
<stop offset="0.54" stop-color="#808080" stop-opacity="0.12"/>
<stop offset="1" stop-color="#808080" stop-opacity="0.1"/>
</linearGradient>
</defs>
</svg>
