<svg width="43" height="43" viewBox="0 0 43 43" fill="none" xmlns="http://www.w3.org/2000/svg">
<path fill-rule="evenodd" clip-rule="evenodd" d="M0.166504 21.168C0.166504 9.56999 9.56852 0.167969 21.1665 0.167969C26.736 0.167969 32.0775 2.38046 36.0157 6.31873C39.954 10.257 42.1665 15.5984 42.1665 21.168C42.1665 32.7659 32.7645 42.168 21.1665 42.168C9.56852 42.168 0.166504 32.7659 0.166504 21.168ZM1.1665 21.168C1.1665 32.2137 10.1208 41.168 21.1665 41.168C26.4708 41.168 31.5579 39.0608 35.3086 35.3101C39.0594 31.5594 41.1665 26.4723 41.1665 21.168C41.1665 10.1223 32.2122 1.16797 21.1665 1.16797C10.1208 1.16797 1.1665 10.1223 1.1665 21.168Z" fill="currentColor"/>
<path d="M20.9165 14.582C22.0211 14.582 22.9165 13.6866 22.9165 12.582C22.9165 11.4775 22.0211 10.582 20.9165 10.582C19.8119 10.582 18.9165 11.4775 18.9165 12.582C18.9165 13.6866 19.8119 14.582 20.9165 14.582Z" fill="currentColor"/>
<path d="M20.9165 16.832C19.8119 16.832 18.9165 17.7275 18.9165 18.832V28.832C18.9165 29.9366 19.8119 30.832 20.9165 30.832C22.0211 30.832 22.9165 29.9366 22.9165 28.832V18.832C22.9165 17.7275 22.0211 16.832 20.9165 16.832Z" fill="currentColor"/>
</svg>
