<svg width="40" height="50" viewBox="0 0 40 50" fill="none" xmlns="http://www.w3.org/2000/svg">
<path d="M38.5001 26.5C39.0001 15.5 29.0001 10 28.5001 9.5L18.5001 7.5C0.50012 7.9 0.000120401 32 2.00012 44C14.0001 52.4 31.3335 48.1667 38.5001 45C38.3335 42.5 38.1001 35.3 38.5001 26.5Z" fill="#3CC300" fill-opacity="0.15"/>
<path d="M24.5136 6.87388V4.37271C24.5136 1.96163 22.5522 0 20.1412 0H19.8595C17.4486 0 15.4871 1.96163 15.4871 4.37271V6.87361C6.83146 8.91787 0.37085 16.7084 0.37085 25.9795V44.5839C0.37085 46.4019 2.44105 47.7595 6.69974 48.7342C10.2661 49.5505 14.9896 50 20.0002 50C25.0106 50 29.7341 49.5505 33.3005 48.7342C37.5591 47.7595 39.6292 46.4019 39.6292 44.5839V25.9795C39.6293 16.7084 33.1694 8.918 24.5136 6.87388ZM17.8821 4.37271C17.8821 3.2822 18.7691 2.39499 19.8595 2.39499H20.1412C21.2316 2.39499 22.1187 3.2822 22.1187 4.37271V6.4638C21.4229 6.38889 20.7153 6.35017 19.9999 6.35017C19.2845 6.35017 18.5778 6.38863 17.8821 6.46367V4.37271ZM37.2344 41.7293C35.6573 40.9451 33.305 40.3192 30.1884 39.8568C29.5339 39.7604 28.9253 40.2116 28.8281 40.8657C28.7311 41.5199 29.1827 42.1289 29.8368 42.2259C35.1478 43.0138 36.9215 44.1562 37.2092 44.5789C37.0426 44.798 36.1433 45.6957 32.211 46.5214C28.8828 47.2202 24.5464 47.6051 20.0003 47.6051C15.4541 47.6051 11.1176 47.2202 7.78945 46.5214C3.85689 45.6957 2.9577 44.7981 2.79112 44.5789C3.07878 44.1562 4.85267 43.0138 10.1637 42.2259C10.8179 42.1289 11.2695 41.5198 11.1725 40.8657C11.0755 40.2114 10.4661 39.7596 9.81229 39.8568C6.69561 40.3192 4.3432 40.9452 2.7661 41.7294V25.9795C2.7661 16.4766 10.4974 8.74529 20.0004 8.74529C29.5033 8.74529 37.2345 16.4766 37.2345 25.9795L37.2344 41.7293ZM30.3897 17.9867C29.8095 18.0394 29.2266 18.1237 28.6572 18.2369C24.3705 19.0907 20.6728 21.5627 18.2452 25.1975C18.2405 25.2044 18.236 25.2114 18.2313 25.2181C15.7469 23.0456 12.4456 22.049 9.12 22.5259C8.72217 22.5827 8.31981 22.6624 7.92397 22.7628C7.42728 22.8886 7.06564 23.3167 7.02452 23.8273C6.95693 24.6672 6.98381 25.5203 7.10462 26.3631C7.76524 30.9757 11.1094 34.6582 15.5569 35.7915C15.61 36.3551 15.6925 36.9191 15.8047 37.4819C16.002 38.4728 16.2902 39.4441 16.6634 40.3772L15.3673 42.5847C15.0324 43.155 15.2234 43.8888 15.7938 44.2237C15.9842 44.3355 16.1929 44.3887 16.3989 44.3887C16.8096 44.3887 17.2096 44.1771 17.4327 43.7973L18.729 41.5896C19.1028 41.5414 19.4749 41.4805 19.8406 41.4076C24.1277 40.5538 27.8256 38.0818 30.2532 34.447C32.6808 30.8122 33.5475 26.4494 32.6936 22.1624C32.4553 20.9666 32.0849 19.7992 31.5923 18.6922C31.3838 18.2243 30.9011 17.94 30.3897 17.9867ZM15.5133 33.2835C12.3217 32.2154 9.96517 29.443 9.47552 26.0235C9.42243 25.6527 9.39223 25.2797 9.38505 24.9077C9.40993 24.904 9.43481 24.9003 9.45969 24.8967C12.253 24.4963 15.025 25.4117 17.0229 27.3613C16.1445 29.2321 15.6354 31.2363 15.5133 33.2835ZM28.2615 33.1171C26.3761 35.9401 23.593 37.9414 20.3502 38.8283L25.5229 30.0184C25.8578 29.4481 25.6668 28.7143 25.0966 28.3794C24.906 28.2676 24.6974 28.2144 24.4914 28.2144C24.0806 28.2144 23.6806 28.426 23.4576 28.8058L18.2864 37.6131C18.2379 37.4146 18.1935 37.2149 18.1535 37.0142C18.0086 36.2866 17.9217 35.5566 17.8918 34.8292C17.8922 34.8083 17.8919 34.7873 17.8912 34.7662C17.8042 32.3214 18.3693 29.8838 19.5257 27.7168C19.5355 27.6984 19.5448 27.6798 19.5536 27.661C19.7623 27.2753 19.9902 26.8969 20.2367 26.5277C22.3089 23.4247 25.4655 21.3146 29.1247 20.5858C29.3265 20.5457 29.5302 20.5099 29.7351 20.4783C29.9942 21.1762 30.1985 21.8971 30.3448 22.6305C31.0737 26.2899 30.3337 30.0142 28.2615 33.1171Z" fill="#3CC300"/>
</svg>
