<svg width="17" height="16" viewBox="0 0 17 16" fill="none" xmlns="http://www.w3.org/2000/svg">
<path d="M16.4001 3.33986L13.6601 0.599858C13.3024 0.263954 12.8338 0.0712167 12.3434 0.0583099C11.8529 0.0454032 11.3748 0.213227 11.0001 0.529858L2.00005 9.52986C1.67682 9.85582 1.47556 10.2831 1.43005 10.7399L1.00005 14.9099C0.986582 15.0563 1.00559 15.204 1.05571 15.3422C1.10584 15.4805 1.18585 15.606 1.29005 15.7099C1.38349 15.8025 1.49431 15.8759 1.61615 15.9256C1.73798 15.9754 1.86845 16.0006 2.00005 15.9999H2.09005L6.26005 15.6199C6.71685 15.5744 7.14409 15.3731 7.47005 15.0499L16.4701 6.04986C16.8194 5.68083 17.0082 5.18837 16.995 4.68039C16.9819 4.17242 16.768 3.69037 16.4001 3.33986ZM6.08005 13.6199L3.08005 13.8999L3.35005 10.8999L9.00005 5.31986L11.7001 8.01986L6.08005 13.6199ZM13.0001 6.67986L10.3201 3.99986L12.2701 1.99986L15.0001 4.72986L13.0001 6.67986Z" fill="currentColor"/>
</svg>
