<svg width="23" height="23" viewBox="0 0 23 23" fill="none" xmlns="http://www.w3.org/2000/svg">
<path fill-rule="evenodd" clip-rule="evenodd" d="M22.055 11.8865C22.1012 11.8286 22.141 11.7659 22.174 11.6996L22.225 11.6486C22.2609 11.5584 22.2802 11.4624 22.2818 11.3654C22.2789 11.2722 22.2598 11.1802 22.2253 11.0936L22.1743 11.0427C22.162 10.9506 22.1313 10.862 22.0838 10.7822L22.0555 10.7539C22.0078 10.6891 21.9506 10.6318 21.8857 10.5841L8.29795 3.79506C7.98925 3.6392 7.61518 3.69927 7.37044 3.94401C7.1257 4.18875 7.06563 4.56283 7.22149 4.87153L10.4406 11.3087L7.21536 17.749C7.0592 18.0579 7.11892 18.4319 7.36343 18.6764C7.60794 18.9209 7.98195 18.9806 8.2908 18.8245L21.8851 12.0225C21.9476 11.9851 22.0048 11.9393 22.055 11.8865ZM18.0973 10.5236L11.7888 10.5266L9.68983 6.32006L18.0973 10.5236ZM11.788 12.1236L9.68507 16.3321L18.0965 12.1206L11.788 12.1236Z" fill="currentColor"/>
</svg>
