<svg width="18" height="18" viewBox="0 0 18 18" fill="none" xmlns="http://www.w3.org/2000/svg">
  <path d="M0.739506 10.4411C1.26278 10.2779 1.81964 10.5677 1.98665 11.09C2.95401 14.0498 5.72927 16.0387 8.84096 16.0021C12.7456 16.0465 15.9498 12.9206 16.0046 9.01339C15.9498 5.1062 12.7456 1.98023 8.84096 2.02465C7.14726 2.02055 5.50568 2.61051 4.20158 3.69196L6.36663 3.33254C6.6287 3.28939 6.89715 3.35258 7.11251 3.50812C7.32787 3.66366 7.47237 3.89871 7.514 4.1612C7.55712 4.42345 7.49397 4.69209 7.33854 4.90759C7.1831 5.1231 6.94821 5.2677 6.6859 5.30935L2.45558 6.00823H2.28597C2.17028 6.00809 2.05549 5.98782 1.94674 5.94833C1.9102 5.93444 1.87641 5.91416 1.84697 5.88842C1.77543 5.8618 1.7082 5.8248 1.64743 5.7786L1.55763 5.66878C1.55763 5.61886 1.46784 5.57892 1.42793 5.51902C1.38802 5.45911 1.42793 5.41918 1.37804 5.37924C1.35048 5.3211 1.32714 5.26104 1.3082 5.19953L0.559917 1.20596C0.492191 0.849273 0.619774 0.483521 0.894606 0.246484C1.16944 0.00944659 1.54976 -0.0628645 1.89232 0.0567893C2.23488 0.176443 2.48763 0.469884 2.55535 0.826575L2.82473 2.27424C4.49492 0.825817 6.63084 0.0282914 8.84096 0.0278613C13.8476 -0.0164853 17.9452 4.00342 18 9.01339C17.9452 14.0234 13.8476 18.0433 8.84096 17.9989C4.84037 18.0604 1.26903 15.4996 0.0411053 11.6891C-0.0353527 11.4308 -0.00430298 11.1526 0.127205 10.9176C0.258713 10.6827 0.479525 10.5108 0.739506 10.4411Z" fill="currentColor"/>
</svg>
