<svg width="42" height="42" viewBox="0 0 42 42" preserveAspectRatio="none" fill="none" xmlns="http://www.w3.org/2000/svg">
<path fill-rule="evenodd" clip-rule="evenodd" d="M0 21C0 9.40202 9.40202 0 21 0C26.5695 0 31.911 2.21249 35.8492 6.15076C39.7875 10.089 42 15.4305 42 21C42 32.598 32.598 42 21 42C9.40202 42 0 32.598 0 21ZM20.433 28.581L30.03 15.981V15.918C30.4877 15.3178 30.5903 14.519 30.2994 13.8226C30.0084 13.1261 29.368 12.6378 28.6194 12.5416C27.8708 12.4453 27.1277 12.7558 26.67 13.356L18.732 23.856L15.309 19.488C14.8476 18.8953 14.105 18.5938 13.361 18.697C12.617 18.8003 11.9846 19.2926 11.702 19.9885C11.4194 20.6845 11.5296 21.4783 11.991 22.071L17.115 28.602C17.5157 29.1091 18.1277 29.4035 18.774 29.4C19.4239 29.3984 20.0365 29.096 20.433 28.581Z" fill="#3CC300"/>
</svg>
