<svg width="16" height="20" viewBox="0 0 16 20" fill="none" xmlns="http://www.w3.org/2000/svg" preserveAspectRatio="none">
<path d="M11 14H5C4.44772 14 4 14.4477 4 15C4 15.5523 4.44772 16 5 16H11C11.5523 16 12 15.5523 12 15C12 14.4477 11.5523 14 11 14Z" fill="currentColor"/>
<path d="M5 12H7C7.55228 12 8 11.5523 8 11C8 10.4477 7.55228 10 7 10H5C4.44772 10 4 10.4477 4 11C4 11.5523 4.44772 12 5 12Z" fill="currentColor"/>
<path fill-rule="evenodd" clip-rule="evenodd" d="M15.74 6.33006L10.3 0.330174C10.1109 0.120694 9.84218 0.000843938 9.56 0.000180181H2.56C1.88899 -0.00782305 1.24229 0.251073 0.762182 0.719922C0.282078 1.18876 0.00790949 1.82913 0 2.50013V17.4999C0.00790949 18.1709 0.282078 18.8112 0.762182 19.2801C1.24229 19.7489 1.88899 20.0078 2.56 19.9998H13.44C14.111 20.0078 14.7577 19.7489 15.2378 19.2801C15.7179 18.8112 15.9921 18.1709 16 17.4999V7.00005C15.9994 6.75222 15.9067 6.51346 15.74 6.33006ZM10.0026 3L13 6H10.8121C10.5807 5.98723 10.3646 5.89 10.2124 5.73016C10.0602 5.57032 9.98459 5.36128 10.0026 5.15V3ZM2.56 17.9991H13.44C13.5806 18.0073 13.7187 17.9592 13.8238 17.8654C13.9289 17.7716 13.9923 17.6398 14 17.4992V8.00022H10.71C9.17685 7.95662 7.9664 6.68377 8 5.15054V2.00089H2.56C2.41938 1.99271 2.28128 2.04083 2.17621 2.13463C2.07114 2.22844 2.00774 2.3602 2 2.50084V17.4992C2.00774 17.6398 2.07114 17.7716 2.17621 17.8654C2.28128 17.9592 2.41938 18.0073 2.56 17.9991Z" fill="currentColor"/>
</svg>
